<?xml version="1.0"?>
<svg xmlns="http://www.w3.org/2000/svg" height="512px" viewBox="0 0 512 512" width="512px"><g fill-rule="evenodd"><path d="m512 256c0-.007812 0-.015625 0-.027344-.015625-141.144531-114.851562-255.972656-256-255.972656s-255.984375 114.828125-256 255.972656v.027344.027344c.015625 141.144531 114.851562 255.972656 256 255.972656s255.984375-114.828125 256-255.972656c0-.011719 0-.019532 0-.027344zm-246 235.773438v-47.726563c0-5.523437-4.476562-10-10-10s-10 4.476563-10 10v47.726563c-122.191406-5.121094-220.652344-103.582032-225.773438-225.773438h47.726563c5.523437 0 10-4.476562 10-10s-4.476563-10-10-10h-47.726563c5.121094-122.191406 103.582032-220.652344 225.773438-225.773438v47.726563c0 5.523437 4.476562 10 10 10s10-4.476563 10-10v-47.726563c122.191406 5.121094 220.652344 103.582032 225.773438 225.773438h-47.726563c-5.523437 0-10 4.476562-10 10s4.476563 10 10 10h47.726563c-5.121094 122.191406-103.582032 220.652344-225.773438 225.773438zm0 0" fill="#FFFFFF"/><path d="m265.132812 128.273438c-1.609374-3.605469-5.1875-5.925782-9.132812-5.925782-3.949219 0-7.523438 2.320313-9.132812 5.925782l-35.214844 78.933593c-2.25 5.042969.011718 10.957031 5.054687 13.207031 5.046875 2.25 10.957031-.015624 13.207031-5.058593l26.085938-58.464844 85.773438 192.25-82.222657-31.253906c-2.289062-.871094-4.816406-.871094-7.105469 0l-82.21875 31.253906 25.414063-56.964844c2.25-5.042969-.015625-10.953125-5.058594-13.207031-5.042969-2.25-10.957031.015625-13.207031 5.058594l-35.214844 78.9375c-1.648437 3.6875-.910156 8.007812 1.863282 10.941406 2.773437 2.9375 7.046874 3.914062 10.820312 2.480469l101.15625-38.457031 101.152344 38.457031c1.15625.4375 2.359375.652343 3.554687.652343 2.695313 0 5.34375-1.09375 7.269531-3.132812 2.773438-2.933594 3.507813-7.253906 1.863282-10.941406zm0 0" fill="#FFFFFF"/><path d="m203.644531 260.207031c5.792969 0 10.515625-4.722656 10.515625-10.515625 0-5.789062-4.722656-10.511718-10.515625-10.511718-5.789062 0-10.511719 4.722656-10.511719 10.511718 0 5.792969 4.722657 10.515625 10.511719 10.515625zm0 0" fill="#FFFFFF"/></g></svg>
